<?xml version="1.0" encoding="UTF-8" standalone="no"?>
<!DOCTYPE svg PUBLIC "-//W3C//DTD SVG 1.1//EN"
 "http://www.w3.org/Graphics/SVG/1.1/DTD/svg11.dtd">
<!-- Generated by graphviz version 2.40.1 (0)
 -->
<!-- Title: %3 Pages: 1 -->
<svg width="1146pt" height="562pt"
 viewBox="0.00 0.00 1145.50 562.00" xmlns="http://www.w3.org/2000/svg" xmlns:xlink="http://www.w3.org/1999/xlink">
<g id="graph0" class="graph" transform="scale(1 1) rotate(0) translate(4 558)">
<title>%3</title>
<polygon fill="#ffffff" stroke="transparent" points="-4,4 -4,-558 1141.5,-558 1141.5,4 -4,4"/>
<g id="clust1" class="cluster">
<title>cluster_0</title>
<path fill="none" stroke="#000000" d="M265.5,-228C265.5,-228 615.5,-228 615.5,-228 621.5,-228 627.5,-234 627.5,-240 627.5,-240 627.5,-436 627.5,-436 627.5,-442 621.5,-448 615.5,-448 615.5,-448 265.5,-448 265.5,-448 259.5,-448 253.5,-442 253.5,-436 253.5,-436 253.5,-240 253.5,-240 253.5,-234 259.5,-228 265.5,-228"/>
<text text-anchor="start" x="361" y="-433.8" font-family="Times,serif" font-size="14.00" fill="#000000"> </text>
<text text-anchor="start" x="366" y="-433.8" font-family="Times,serif" font-weight="bold" font-size="14.00" fill="#000000">🖧 CloudFront CDN</text>
<text text-anchor="start" x="515" y="-433.8" font-family="Times,serif" font-size="14.00" fill="#000000"> </text>
</g>
<g id="clust2" class="cluster">
<title>cluster_1</title>
<polygon fill="none" stroke="#000000" stroke-dasharray="5,2" points="261.5,-236 261.5,-311 619.5,-311 619.5,-236 261.5,-236"/>
<text text-anchor="start" x="394" y="-296.8" font-family="Times,serif" font-weight="bold" font-size="14.00" fill="#000000">cdn&#45;lambda</text>
</g>
<!-- client -->
<g id="node1" class="node">
<title>client</title>
<ellipse fill="none" stroke="#000000" cx="437.5" cy="-536" rx="50.8918" ry="18"/>
<text text-anchor="middle" x="437.5" y="-532.3" font-family="Times,serif" font-size="14.00" fill="#000000">💻 client</text>
</g>
<!-- controller -->
<g id="node2" class="node">
<title>controller</title>
<ellipse fill="none" stroke="#000000" cx="437.5" cy="-399" rx="55.7903" ry="18"/>
<text text-anchor="middle" x="437.5" y="-395.3" font-family="Times,serif" font-size="14.00" fill="#000000">controller</text>
</g>
<!-- client&#45;&gt;controller -->
<g id="edge1" class="edge">
<title>client:sw&#45;&gt;controller</title>
<path fill="none" stroke="#000000" d="M420.5,-519C396.4102,-494.9102 409.5923,-453.2913 422.5363,-425.9523"/>
<polygon fill="#000000" stroke="#000000" points="425.7055,-427.4399 427.0433,-416.9298 419.4434,-424.3116 425.7055,-427.4399"/>
<path fill="#ffffff" stroke="transparent" d="M399.6645,-464.9991C399.6645,-464.9991 404.3311,-464.9991 404.3311,-464.9991 406.6645,-464.9991 408.9978,-467.3324 408.9978,-469.6658 408.9978,-469.6658 408.9978,-479.3324 408.9978,-479.3324 408.9978,-481.6658 406.6645,-483.9991 404.3311,-483.9991 404.3311,-483.9991 399.6645,-483.9991 399.6645,-483.9991 397.3311,-483.9991 394.9978,-481.6658 394.9978,-479.3324 394.9978,-479.3324 394.9978,-469.6658 394.9978,-469.6658 394.9978,-467.3324 397.3311,-464.9991 399.6645,-464.9991"/>
<text text-anchor="start" x="396.9978" y="-470.2991" font-family="Times,serif" font-size="14.00" fill="#000000">1</text>
</g>
<!-- controller&#45;&gt;client -->
<g id="edge7" class="edge">
<title>controller&#45;&gt;client:se</title>
<path fill="none" stroke="#000000" d="M447.9567,-416.9298C460.4851,-440.7675 477.7971,-483.1112 460.8891,-510.8849"/>
<polygon fill="#000000" stroke="#000000" points="457.936,-508.9778 454.5,-519 463.436,-513.308 457.936,-508.9778"/>
<path fill="#ffffff" stroke="transparent" d="M456.6351,-464.83C456.6351,-464.83 461.3018,-464.83 461.3018,-464.83 463.6351,-464.83 465.9684,-467.1634 465.9684,-469.4967 465.9684,-469.4967 465.9684,-479.1634 465.9684,-479.1634 465.9684,-481.4967 463.6351,-483.83 461.3018,-483.83 461.3018,-483.83 456.6351,-483.83 456.6351,-483.83 454.3018,-483.83 451.9684,-481.4967 451.9684,-479.1634 451.9684,-479.1634 451.9684,-469.4967 451.9684,-469.4967 451.9684,-467.1634 454.3018,-464.83 456.6351,-464.83"/>
<text text-anchor="start" x="453.9684" y="-470.13" font-family="Times,serif" font-size="14.00" fill="#000000">7</text>
</g>
<!-- origin_request -->
<g id="node3" class="node">
<title>origin_request</title>
<ellipse fill="none" stroke="#000000" cx="347.5" cy="-262" rx="77.9862" ry="18"/>
<text text-anchor="middle" x="347.5" y="-258.3" font-family="Times,serif" font-size="14.00" fill="#000000">origin_request</text>
</g>
<!-- controller&#45;&gt;origin_request -->
<g id="edge2" class="edge">
<title>controller:sw&#45;&gt;origin_request</title>
<path fill="none" stroke="#000000" d="M420.5,-382C393.2842,-354.7842 371.8786,-315.5125 359.4641,-289.3964"/>
<polygon fill="#000000" stroke="#000000" points="362.5303,-287.6883 355.153,-280.0839 356.1779,-290.629 362.5303,-287.6883"/>
<path fill="#ffffff" stroke="transparent" d="M374.1375,-333.7409C374.1375,-333.7409 378.8042,-333.7409 378.8042,-333.7409 381.1375,-333.7409 383.4709,-336.0742 383.4709,-338.4076 383.4709,-338.4076 383.4709,-348.0742 383.4709,-348.0742 383.4709,-350.4076 381.1375,-352.7409 378.8042,-352.7409 378.8042,-352.7409 374.1375,-352.7409 374.1375,-352.7409 371.8042,-352.7409 369.4709,-350.4076 369.4709,-348.0742 369.4709,-348.0742 369.4709,-338.4076 369.4709,-338.4076 369.4709,-336.0742 371.8042,-333.7409 374.1375,-333.7409"/>
<text text-anchor="start" x="371.4709" y="-339.0409" font-family="Times,serif" font-size="14.00" fill="#000000">2</text>
</g>
<!-- S3 -->
<g id="node5" class="node">
<title>S3</title>
<polygon fill="none" stroke="#000000" points="690.5,-116.5 690.5,-137.5 1128.5,-137.5 1128.5,-116.5 690.5,-116.5"/>
<text text-anchor="start" x="890" y="-124.3" font-family="Times,serif" font-weight="bold" font-size="14.00" fill="#000000">☁ S3</text>
<polygon fill="none" stroke="#000000" points="690.5,-100.5 690.5,-116.5 784.5,-116.5 784.5,-100.5 690.5,-100.5"/>
<text text-anchor="start" x="728.5" y="-107.3" font-family="Times,serif" font-weight="bold" font-size="9.00" fill="#000000">key</text>
<polygon fill="none" stroke="#000000" points="784.5,-100.5 784.5,-116.5 956.5,-116.5 956.5,-100.5 784.5,-100.5"/>
<text text-anchor="start" x="855" y="-107.3" font-family="Times,serif" font-weight="bold" font-size="9.00" fill="#000000">object</text>
<polygon fill="none" stroke="#000000" points="956.5,-100.5 956.5,-116.5 1128.5,-116.5 1128.5,-100.5 956.5,-100.5"/>
<text text-anchor="start" x="1018" y="-107.3" font-family="Times,serif" font-weight="bold" font-size="9.00" fill="#000000">metadata</text>
<polygon fill="none" stroke="#000000" points="690.5,-84.5 690.5,-100.5 784.5,-100.5 784.5,-84.5 690.5,-84.5"/>
<text text-anchor="start" x="696" y="-90.3" font-family="Times,serif" font-size="9.00" fill="#000000">8e7750e50734f...</text>
<polygon fill="none" stroke="#000000" points="784.5,-84.5 784.5,-100.5 956.5,-100.5 956.5,-84.5 784.5,-84.5"/>
<text text-anchor="start" x="790.5" y="-91.3" font-family="Times,serif" font-style="italic" font-size="9.00" fill="#000000">[blob tar&#45;1.26&#45;34.el7.x86_64.rpm]</text>
<polygon fill="none" stroke="#000000" points="956.5,-84.5 956.5,-100.5 1128.5,-100.5 1128.5,-84.5 956.5,-84.5"/>
<text text-anchor="start" x="1040.5" y="-90.3" font-family="Times,serif" font-size="9.00" fill="#000000">&#45;</text>
<polygon fill="none" stroke="#000000" points="690.5,-68.5 690.5,-84.5 784.5,-84.5 784.5,-68.5 690.5,-68.5"/>
<text text-anchor="start" x="693.5" y="-74.3" font-family="Times,serif" font-size="9.00" fill="#000000">db8dd5164d117...</text>
<polygon fill="none" stroke="#000000" points="784.5,-68.5 784.5,-84.5 956.5,-84.5 956.5,-68.5 784.5,-68.5"/>
<text text-anchor="start" x="787.5" y="-75.3" font-family="Times,serif" font-style="italic" font-size="9.00" fill="#000000">[blob zlib&#45;1.2.7&#45;18.el7.x86_64.rpm]</text>
<polygon fill="none" stroke="#000000" points="956.5,-68.5 956.5,-84.5 1128.5,-84.5 1128.5,-68.5 956.5,-68.5"/>
<text text-anchor="start" x="1040.5" y="-74.3" font-family="Times,serif" font-size="9.00" fill="#000000">&#45;</text>
<polygon fill="none" stroke="#000000" points="690.5,-52.5 690.5,-68.5 784.5,-68.5 784.5,-52.5 690.5,-52.5"/>
<text text-anchor="start" x="699.5" y="-58.3" font-family="Times,serif" font-size="9.00" fill="#000000">aec070645fe5...</text>
<polygon fill="none" stroke="#000000" points="784.5,-52.5 784.5,-68.5 956.5,-68.5 956.5,-52.5 784.5,-52.5"/>
<text text-anchor="start" x="814.5" y="-59.3" font-family="Times,serif" font-style="italic" font-size="9.00" fill="#000000">[blob some repomd.xml]</text>
<polygon fill="none" stroke="#000000" points="956.5,-52.5 956.5,-68.5 1128.5,-68.5 1128.5,-52.5 956.5,-52.5"/>
<text text-anchor="start" x="968" y="-58.3" font-family="Times,serif" font-size="9.00" fill="#000000">{ContentType: application/xml}</text>
<polygon fill="none" stroke="#000000" points="690.5,-36.5 690.5,-52.5 784.5,-52.5 784.5,-36.5 690.5,-36.5"/>
<text text-anchor="start" x="699" y="-42.3" font-family="Times,serif" font-size="9.00" fill="#000000">5d70f436aa01...</text>
<polygon fill="none" stroke="#000000" points="784.5,-36.5 784.5,-52.5 956.5,-52.5 956.5,-36.5 784.5,-36.5"/>
<text text-anchor="start" x="813.5" y="-43.3" font-family="Times,serif" font-style="italic" font-size="9.00" fill="#000000">[blob other repomd.xml]</text>
<polygon fill="none" stroke="#000000" points="956.5,-36.5 956.5,-52.5 1128.5,-52.5 1128.5,-36.5 956.5,-36.5"/>
<text text-anchor="start" x="968" y="-42.3" font-family="Times,serif" font-size="9.00" fill="#000000">{ContentType: application/xml}</text>
<polygon fill="none" stroke="#000000" points="690.5,-20.5 690.5,-36.5 784.5,-36.5 784.5,-20.5 690.5,-20.5"/>
<text text-anchor="start" x="701" y="-26.3" font-family="Times,serif" font-size="9.00" fill="#000000">49ae93732fcf...</text>
<polygon fill="none" stroke="#000000" points="784.5,-20.5 784.5,-36.5 956.5,-36.5 956.5,-20.5 784.5,-20.5"/>
<text text-anchor="start" x="800" y="-27.3" font-family="Times,serif" font-style="italic" font-size="9.00" fill="#000000">[blob some primary.sqlite.bz2]</text>
<polygon fill="none" stroke="#000000" points="956.5,-20.5 956.5,-36.5 1128.5,-36.5 1128.5,-20.5 956.5,-20.5"/>
<text text-anchor="start" x="959.5" y="-26.3" font-family="Times,serif" font-size="9.00" fill="#000000">{ContentType: application/x&#45;bzip2}</text>
<polygon fill="none" stroke="#000000" points="690.5,-4.5 690.5,-20.5 1128.5,-20.5 1128.5,-4.5 690.5,-4.5"/>
<text text-anchor="start" x="904.5" y="-10.3" font-family="Times,serif" font-size="9.00" fill="#000000">...</text>
<polygon fill="none" stroke="#000000" points="689.5,-4 689.5,-139 1129.5,-139 1129.5,-4 689.5,-4"/>
</g>
<!-- controller&#45;&gt;S3 -->
<g id="edge5" class="edge">
<title>controller&#45;&gt;S3</title>
<path fill="none" stroke="#000000" d="M501.6944,-393.0071C602.8923,-382.2843 793.0114,-356.5639 841.5,-311 884.3924,-270.6948 900.8939,-205.5038 906.9444,-153.3055"/>
<polygon fill="#000000" stroke="#000000" points="501.1757,-389.5421 491.592,-394.059 501.9007,-396.5045 501.1757,-389.5421"/>
<polygon fill="#000000" stroke="#000000" points="910.4577,-153.3608 908.0199,-143.0503 903.4959,-152.6307 910.4577,-153.3608"/>
<path fill="#ffffff" stroke="transparent" d="M711.7432,-358.6093C711.7432,-358.6093 716.4099,-358.6093 716.4099,-358.6093 718.7432,-358.6093 721.0765,-360.9426 721.0765,-363.2759 721.0765,-363.2759 721.0765,-372.9426 721.0765,-372.9426 721.0765,-375.2759 718.7432,-377.6093 716.4099,-377.6093 716.4099,-377.6093 711.7432,-377.6093 711.7432,-377.6093 709.4099,-377.6093 707.0765,-375.2759 707.0765,-372.9426 707.0765,-372.9426 707.0765,-363.2759 707.0765,-363.2759 707.0765,-360.9426 709.4099,-358.6093 711.7432,-358.6093"/>
<text text-anchor="start" x="709.0765" y="-363.9093" font-family="Times,serif" font-size="14.00" fill="#000000">5</text>
</g>
<!-- origin_response -->
<g id="node6" class="node">
<title>origin_response</title>
<ellipse fill="none" stroke="#000000" cx="527.5" cy="-262" rx="84.485" ry="18"/>
<text text-anchor="middle" x="527.5" y="-258.3" font-family="Times,serif" font-size="14.00" fill="#000000">origin_response</text>
</g>
<!-- controller&#45;&gt;origin_response -->
<g id="edge6" class="edge">
<title>controller:se&#45;&gt;origin_response</title>
<path fill="none" stroke="#000000" d="M461.5561,-374.5429C485.4665,-347.912 504.2918,-313.0698 515.605,-289.2509"/>
<polygon fill="#000000" stroke="#000000" points="458.8308,-372.3307 454.5,-382 463.9154,-377.1419 458.8308,-372.3307"/>
<polygon fill="#000000" stroke="#000000" points="518.8237,-290.6292 519.847,-280.0839 512.4709,-287.6895 518.8237,-290.6292"/>
<path fill="#ffffff" stroke="transparent" d="M482.0265,-334.0144C482.0265,-334.0144 486.6931,-334.0144 486.6931,-334.0144 489.0265,-334.0144 491.3598,-336.3477 491.3598,-338.6811 491.3598,-338.6811 491.3598,-348.3477 491.3598,-348.3477 491.3598,-350.6811 489.0265,-353.0144 486.6931,-353.0144 486.6931,-353.0144 482.0265,-353.0144 482.0265,-353.0144 479.6931,-353.0144 477.3598,-350.6811 477.3598,-348.3477 477.3598,-348.3477 477.3598,-338.6811 477.3598,-338.6811 477.3598,-336.3477 479.6931,-334.0144 482.0265,-334.0144"/>
<text text-anchor="start" x="479.3598" y="-339.3144" font-family="Times,serif" font-size="14.00" fill="#000000">6</text>
</g>
<!-- origin_request&#45;&gt;controller -->
<g id="edge4" class="edge">
<title>origin_request&#45;&gt;controller:s</title>
<path fill="none" stroke="#000000" d="M372.0929,-279.0908C396.6584,-298.2125 431.5177,-331.7034 436.8145,-370.9134"/>
<polygon fill="#000000" stroke="#000000" points="433.33,-371.2603 437.5,-381 440.3138,-370.7857 433.33,-371.2603"/>
<path fill="#ffffff" stroke="transparent" d="M406.059,-322.3182C406.059,-322.3182 410.7257,-322.3182 410.7257,-322.3182 413.059,-322.3182 415.3924,-324.6516 415.3924,-326.9849 415.3924,-326.9849 415.3924,-336.6516 415.3924,-336.6516 415.3924,-338.9849 413.059,-341.3182 410.7257,-341.3182 410.7257,-341.3182 406.059,-341.3182 406.059,-341.3182 403.7257,-341.3182 401.3924,-338.9849 401.3924,-336.6516 401.3924,-336.6516 401.3924,-326.9849 401.3924,-326.9849 401.3924,-324.6516 403.7257,-322.3182 406.059,-322.3182"/>
<text text-anchor="start" x="403.3924" y="-327.6182" font-family="Times,serif" font-size="14.00" fill="#000000">4</text>
</g>
<!-- db -->
<g id="node4" class="node">
<title>db</title>
<polygon fill="none" stroke="#000000" points="9.5,-108.5 9.5,-129.5 654.5,-129.5 654.5,-108.5 9.5,-108.5"/>
<text text-anchor="start" x="278.5" y="-116.3" font-family="Times,serif" font-weight="bold" font-size="14.00" fill="#000000">☁ DynamoDB</text>
<polygon fill="none" stroke="#000000" points="9.5,-92.5 9.5,-108.5 417.5,-108.5 417.5,-92.5 9.5,-92.5"/>
<text text-anchor="start" x="154.5" y="-99.3" font-family="Times,serif" font-weight="bold" font-size="9.00" fill="#000000">web_uri (partition key)</text>
<polygon fill="none" stroke="#000000" points="417.5,-92.5 417.5,-108.5 560.5,-108.5 560.5,-92.5 417.5,-92.5"/>
<text text-anchor="start" x="437" y="-99.3" font-family="Times,serif" font-weight="bold" font-size="9.00" fill="#000000">from_date (sort key)</text>
<polygon fill="none" stroke="#000000" points="560.5,-92.5 560.5,-108.5 654.5,-108.5 654.5,-92.5 560.5,-92.5"/>
<text text-anchor="start" x="581" y="-99.3" font-family="Times,serif" font-weight="bold" font-size="9.00" fill="#000000">object_key</text>
<polygon fill="none" stroke="#000000" points="9.5,-76.5 9.5,-92.5 417.5,-92.5 417.5,-76.5 9.5,-76.5"/>
<text text-anchor="start" x="16" y="-82.3" font-family="Times,serif" font-size="9.00" fill="#000000">/content/dist/rhel/server/7/7Server/x86_64/os/Packages/t/tar&#45;1.26&#45;34.el7.x86_64.rpm</text>
<polygon fill="none" stroke="#000000" points="417.5,-76.5 417.5,-92.5 560.5,-92.5 560.5,-76.5 417.5,-76.5"/>
<text text-anchor="start" x="420.5" y="-82.3" font-family="Times,serif" font-size="9.00" fill="#000000">2020&#45;03&#45;26T01:07:39+00:00</text>
<polygon fill="none" stroke="#000000" points="560.5,-76.5 560.5,-92.5 654.5,-92.5 654.5,-76.5 560.5,-76.5"/>
<text text-anchor="start" x="566" y="-82.3" font-family="Times,serif" font-size="9.00" fill="#000000">8e7750e50734f...</text>
<polygon fill="none" stroke="#000000" points="9.5,-60.5 9.5,-76.5 417.5,-76.5 417.5,-60.5 9.5,-60.5"/>
<text text-anchor="start" x="12.5" y="-66.3" font-family="Times,serif" font-size="9.00" fill="#000000">/content/dist/rhel/server/7/7Server/x86_64/os/Packages/z/zlib&#45;1.2.7&#45;18.el7.x86_64.rpm</text>
<polygon fill="none" stroke="#000000" points="417.5,-60.5 417.5,-76.5 560.5,-76.5 560.5,-60.5 417.5,-60.5"/>
<text text-anchor="start" x="420.5" y="-66.3" font-family="Times,serif" font-size="9.00" fill="#000000">2020&#45;03&#45;26T01:07:39+00:00</text>
<polygon fill="none" stroke="#000000" points="560.5,-60.5 560.5,-76.5 654.5,-76.5 654.5,-60.5 560.5,-60.5"/>
<text text-anchor="start" x="563.5" y="-66.3" font-family="Times,serif" font-size="9.00" fill="#000000">db8dd5164d117...</text>
<polygon fill="none" stroke="#000000" points="9.5,-44.5 9.5,-60.5 417.5,-60.5 417.5,-44.5 9.5,-44.5"/>
<text text-anchor="start" x="57" y="-50.3" font-family="Times,serif" font-size="9.00" fill="#000000">/content/dist/rhel/server/7/7Server/x86_64/os/repodata/repomd.xml</text>
<polygon fill="none" stroke="#000000" points="417.5,-44.5 417.5,-60.5 560.5,-60.5 560.5,-44.5 417.5,-44.5"/>
<text text-anchor="start" x="420.5" y="-50.3" font-family="Times,serif" font-size="9.00" fill="#000000">2020&#45;03&#45;26T01:07:39+00:00</text>
<polygon fill="none" stroke="#000000" points="560.5,-44.5 560.5,-60.5 654.5,-60.5 654.5,-44.5 560.5,-44.5"/>
<text text-anchor="start" x="566.5" y="-50.3" font-family="Times,serif" font-size="9.00" fill="#000000">aec070645fe53...</text>
<polygon fill="none" stroke="#000000" points="9.5,-28.5 9.5,-44.5 417.5,-44.5 417.5,-28.5 9.5,-28.5"/>
<text text-anchor="start" x="57" y="-34.3" font-family="Times,serif" font-size="9.00" fill="#000000">/content/dist/rhel/server/7/7Server/x86_64/os/repodata/repomd.xml</text>
<polygon fill="none" stroke="#000000" points="417.5,-28.5 417.5,-44.5 560.5,-44.5 560.5,-28.5 417.5,-28.5"/>
<text text-anchor="start" x="420.5" y="-34.3" font-family="Times,serif" font-size="9.00" fill="#000000">2020&#45;01&#45;22T02:07:20+00:00</text>
<polygon fill="none" stroke="#000000" points="560.5,-28.5 560.5,-44.5 654.5,-44.5 654.5,-28.5 560.5,-28.5"/>
<text text-anchor="start" x="566" y="-34.3" font-family="Times,serif" font-size="9.00" fill="#000000">5d70f436aa013...</text>
<polygon fill="none" stroke="#000000" points="9.5,-12.5 9.5,-28.5 654.5,-28.5 654.5,-12.5 9.5,-12.5"/>
<text text-anchor="start" x="327" y="-18.3" font-family="Times,serif" font-size="9.00" fill="#000000">...</text>
<polygon fill="none" stroke="#000000" points="8,-12 8,-131 655,-131 655,-12 8,-12"/>
</g>
<!-- origin_request&#45;&gt;db -->
<g id="edge3" class="edge">
<title>origin_request&#45;&gt;db</title>
<path fill="none" stroke="#000000" d="M345.1086,-233.5273C343.1596,-210.3226 340.317,-176.477 337.7331,-145.7131"/>
<polygon fill="#000000" stroke="#000000" points="341.6411,-234.0621 345.9659,-243.7341 348.6165,-233.4762 341.6411,-234.0621"/>
<polygon fill="#000000" stroke="#000000" points="341.1932,-145.0901 336.8685,-135.4181 334.2178,-145.676 341.1932,-145.0901"/>
<path fill="#ffffff" stroke="transparent" d="M332.0852,-189.5929C332.0852,-189.5929 336.7519,-189.5929 336.7519,-189.5929 339.0852,-189.5929 341.4186,-191.9262 341.4186,-194.2595 341.4186,-194.2595 341.4186,-203.9262 341.4186,-203.9262 341.4186,-206.2595 339.0852,-208.5929 336.7519,-208.5929 336.7519,-208.5929 332.0852,-208.5929 332.0852,-208.5929 329.7519,-208.5929 327.4186,-206.2595 327.4186,-203.9262 327.4186,-203.9262 327.4186,-194.2595 327.4186,-194.2595 327.4186,-191.9262 329.7519,-189.5929 332.0852,-189.5929"/>
<text text-anchor="start" x="329.4186" y="-194.8929" font-family="Times,serif" font-size="14.00" fill="#000000">3</text>
</g>
<!-- publish_tools -->
<g id="node7" class="node">
<title>publish_tools</title>
<path fill="none" stroke="#000000" d="M820,-280C820,-280 713,-280 713,-280 707,-280 701,-274 701,-268 701,-268 701,-256 701,-256 701,-250 707,-244 713,-244 713,-244 820,-244 820,-244 826,-244 832,-250 832,-256 832,-256 832,-268 832,-268 832,-274 826,-280 820,-280"/>
<text text-anchor="middle" x="766.5" y="-258.3" font-family="Times,serif" font-size="14.00" fill="#000000">publishing tools</text>
</g>
<!-- publish_tools&#45;&gt;db -->
<g id="edge9" class="edge">
<title>publish_tools&#45;&gt;db</title>
<path fill="none" stroke="#000000" d="M725.1841,-243.9065C670.5503,-219.9806 571.2292,-176.4848 486.0208,-139.1695"/>
<polygon fill="#000000" stroke="#000000" points="487.3298,-135.9218 476.7656,-135.1163 484.5217,-142.3339 487.3298,-135.9218"/>
</g>
<!-- publish_tools&#45;&gt;S3 -->
<g id="edge8" class="edge">
<title>publish_tools&#45;&gt;S3</title>
<path fill="none" stroke="#000000" d="M780.2114,-243.7341C796.2614,-222.3529 823.9149,-185.5137 849.538,-151.3795"/>
<polygon fill="#000000" stroke="#000000" points="852.4501,-153.3302 855.6543,-143.2315 846.8518,-149.1278 852.4501,-153.3302"/>
</g>
</g>
</svg>
