<?xml version="1.0" encoding="UTF-8" standalone="no"?>
<!DOCTYPE svg PUBLIC "-//W3C//DTD SVG 1.1//EN"
 "http://www.w3.org/Graphics/SVG/1.1/DTD/svg11.dtd">
<!-- Generated by graphviz version 2.40.1 (0)
 -->
<!-- Title: %3 Pages: 1 -->
<svg width="1008pt" height="555pt"
 viewBox="0.00 0.00 1007.50 555.00" xmlns="http://www.w3.org/2000/svg" xmlns:xlink="http://www.w3.org/1999/xlink">
<g id="graph0" class="graph" transform="scale(1 1) rotate(0) translate(4 551)">
<title>%3</title>
<polygon fill="#ffffff" stroke="transparent" points="-4,4 -4,-551 1003.5,-551 1003.5,4 -4,4"/>
<g id="clust1" class="cluster">
<title>cluster_0</title>
<path fill="none" stroke="#000000" d="M217.5,-221C217.5,-221 567.5,-221 567.5,-221 573.5,-221 579.5,-227 579.5,-233 579.5,-233 579.5,-429 579.5,-429 579.5,-435 573.5,-441 567.5,-441 567.5,-441 217.5,-441 217.5,-441 211.5,-441 205.5,-435 205.5,-429 205.5,-429 205.5,-233 205.5,-233 205.5,-227 211.5,-221 217.5,-221"/>
<text text-anchor="start" x="313" y="-426.8" font-family="Times,serif" font-size="14.00" fill="#000000"> </text>
<text text-anchor="start" x="318" y="-426.8" font-family="Times,serif" font-weight="bold" font-size="14.00" fill="#000000">🖧 CloudFront CDN</text>
<text text-anchor="start" x="467" y="-426.8" font-family="Times,serif" font-size="14.00" fill="#000000"> </text>
</g>
<g id="clust2" class="cluster">
<title>cluster_1</title>
<polygon fill="none" stroke="#000000" stroke-dasharray="5,2" points="213.5,-229 213.5,-304 571.5,-304 571.5,-229 213.5,-229"/>
<text text-anchor="start" x="346" y="-289.8" font-family="Times,serif" font-weight="bold" font-size="14.00" fill="#000000">cdn&#45;lambda</text>
</g>
<!-- client -->
<g id="node1" class="node">
<title>client</title>
<ellipse fill="none" stroke="#000000" cx="389.5" cy="-529" rx="50.8918" ry="18"/>
<text text-anchor="middle" x="389.5" y="-525.3" font-family="Times,serif" font-size="14.00" fill="#000000">💻 client</text>
</g>
<!-- controller -->
<g id="node2" class="node">
<title>controller</title>
<ellipse fill="none" stroke="#000000" cx="389.5" cy="-392" rx="55.7903" ry="18"/>
<text text-anchor="middle" x="389.5" y="-388.3" font-family="Times,serif" font-size="14.00" fill="#000000">controller</text>
</g>
<!-- client&#45;&gt;controller -->
<g id="edge1" class="edge">
<title>client:sw&#45;&gt;controller</title>
<path fill="none" stroke="#000000" d="M372.5,-512C348.4102,-487.9102 361.5923,-446.2913 374.5363,-418.9523"/>
<polygon fill="#000000" stroke="#000000" points="377.7055,-420.4399 379.0433,-409.9298 371.4434,-417.3116 377.7055,-420.4399"/>
<path fill="#ffffff" stroke="transparent" d="M351.6645,-457.9991C351.6645,-457.9991 356.3311,-457.9991 356.3311,-457.9991 358.6645,-457.9991 360.9978,-460.3324 360.9978,-462.6658 360.9978,-462.6658 360.9978,-472.3324 360.9978,-472.3324 360.9978,-474.6658 358.6645,-476.9991 356.3311,-476.9991 356.3311,-476.9991 351.6645,-476.9991 351.6645,-476.9991 349.3311,-476.9991 346.9978,-474.6658 346.9978,-472.3324 346.9978,-472.3324 346.9978,-462.6658 346.9978,-462.6658 346.9978,-460.3324 349.3311,-457.9991 351.6645,-457.9991"/>
<text text-anchor="start" x="348.9978" y="-463.2991" font-family="Times,serif" font-size="14.00" fill="#000000">1</text>
</g>
<!-- controller&#45;&gt;client -->
<g id="edge7" class="edge">
<title>controller&#45;&gt;client:se</title>
<path fill="none" stroke="#000000" d="M399.9567,-409.9298C412.4851,-433.7675 429.7971,-476.1112 412.8891,-503.8849"/>
<polygon fill="#000000" stroke="#000000" points="409.936,-501.9778 406.5,-512 415.436,-506.308 409.936,-501.9778"/>
<path fill="#ffffff" stroke="transparent" d="M408.6351,-457.83C408.6351,-457.83 413.3018,-457.83 413.3018,-457.83 415.6351,-457.83 417.9684,-460.1634 417.9684,-462.4967 417.9684,-462.4967 417.9684,-472.1634 417.9684,-472.1634 417.9684,-474.4967 415.6351,-476.83 413.3018,-476.83 413.3018,-476.83 408.6351,-476.83 408.6351,-476.83 406.3018,-476.83 403.9684,-474.4967 403.9684,-472.1634 403.9684,-472.1634 403.9684,-462.4967 403.9684,-462.4967 403.9684,-460.1634 406.3018,-457.83 408.6351,-457.83"/>
<text text-anchor="start" x="405.9684" y="-463.13" font-family="Times,serif" font-size="14.00" fill="#000000">7</text>
</g>
<!-- origin_request -->
<g id="node3" class="node">
<title>origin_request</title>
<ellipse fill="none" stroke="#000000" cx="299.5" cy="-255" rx="77.9862" ry="18"/>
<text text-anchor="middle" x="299.5" y="-251.3" font-family="Times,serif" font-size="14.00" fill="#000000">origin_request</text>
</g>
<!-- controller&#45;&gt;origin_request -->
<g id="edge2" class="edge">
<title>controller:sw&#45;&gt;origin_request</title>
<path fill="none" stroke="#000000" d="M372.5,-375C345.2842,-347.7842 323.8786,-308.5125 311.4641,-282.3964"/>
<polygon fill="#000000" stroke="#000000" points="314.5303,-280.6883 307.153,-273.0839 308.1779,-283.629 314.5303,-280.6883"/>
<path fill="#ffffff" stroke="transparent" d="M326.1375,-326.7409C326.1375,-326.7409 330.8042,-326.7409 330.8042,-326.7409 333.1375,-326.7409 335.4709,-329.0742 335.4709,-331.4076 335.4709,-331.4076 335.4709,-341.0742 335.4709,-341.0742 335.4709,-343.4076 333.1375,-345.7409 330.8042,-345.7409 330.8042,-345.7409 326.1375,-345.7409 326.1375,-345.7409 323.8042,-345.7409 321.4709,-343.4076 321.4709,-341.0742 321.4709,-341.0742 321.4709,-331.4076 321.4709,-331.4076 321.4709,-329.0742 323.8042,-326.7409 326.1375,-326.7409"/>
<text text-anchor="start" x="323.4709" y="-332.0409" font-family="Times,serif" font-size="14.00" fill="#000000">2</text>
</g>
<!-- S3 -->
<g id="node5" class="node">
<title>S3</title>
<polygon fill="none" stroke="#000000" points="610.5,-110 610.5,-131 990.5,-131 990.5,-110 610.5,-110"/>
<text text-anchor="start" x="781" y="-117.8" font-family="Times,serif" font-weight="bold" font-size="14.00" fill="#000000">☁ S3</text>
<polygon fill="none" stroke="#000000" points="610.5,-95 610.5,-110 692.5,-110 692.5,-95 610.5,-95"/>
<text text-anchor="start" x="643.5" y="-101.6" font-family="Times,serif" font-weight="bold" font-size="8.00" fill="#000000">key</text>
<polygon fill="none" stroke="#000000" points="692.5,-95 692.5,-110 840.5,-110 840.5,-95 692.5,-95"/>
<text text-anchor="start" x="752.5" y="-101.6" font-family="Times,serif" font-weight="bold" font-size="8.00" fill="#000000">object</text>
<polygon fill="none" stroke="#000000" points="840.5,-95 840.5,-110 990.5,-110 990.5,-95 840.5,-95"/>
<text text-anchor="start" x="894" y="-101.6" font-family="Times,serif" font-weight="bold" font-size="8.00" fill="#000000">metadata</text>
<polygon fill="none" stroke="#000000" points="610.5,-80 610.5,-95 692.5,-95 692.5,-80 610.5,-80"/>
<text text-anchor="start" x="615.5" y="-85.6" font-family="Times,serif" font-size="8.00" fill="#000000">8e7750e50734f...</text>
<polygon fill="none" stroke="#000000" points="692.5,-80 692.5,-95 840.5,-95 840.5,-80 692.5,-80"/>
<text text-anchor="start" x="698.5" y="-86.6" font-family="Times,serif" font-style="italic" font-size="8.00" fill="#000000">[blob tar&#45;1.26&#45;34.el7.x86_64.rpm]</text>
<polygon fill="none" stroke="#000000" points="840.5,-80 840.5,-95 990.5,-95 990.5,-80 840.5,-80"/>
<text text-anchor="start" x="913.5" y="-85.6" font-family="Times,serif" font-size="8.00" fill="#000000">&#45;</text>
<polygon fill="none" stroke="#000000" points="610.5,-65 610.5,-80 692.5,-80 692.5,-65 610.5,-65"/>
<text text-anchor="start" x="613.5" y="-70.6" font-family="Times,serif" font-size="8.00" fill="#000000">db8dd5164d117...</text>
<polygon fill="none" stroke="#000000" points="692.5,-65 692.5,-80 840.5,-80 840.5,-65 692.5,-65"/>
<text text-anchor="start" x="695.5" y="-71.6" font-family="Times,serif" font-style="italic" font-size="8.00" fill="#000000">[blob zlib&#45;1.2.7&#45;18.el7.x86_64.rpm]</text>
<polygon fill="none" stroke="#000000" points="840.5,-65 840.5,-80 990.5,-80 990.5,-65 840.5,-65"/>
<text text-anchor="start" x="913.5" y="-70.6" font-family="Times,serif" font-size="8.00" fill="#000000">&#45;</text>
<polygon fill="none" stroke="#000000" points="610.5,-50 610.5,-65 692.5,-65 692.5,-50 610.5,-50"/>
<text text-anchor="start" x="619" y="-55.6" font-family="Times,serif" font-size="8.00" fill="#000000">aec070645fe5...</text>
<polygon fill="none" stroke="#000000" points="692.5,-50 692.5,-65 840.5,-65 840.5,-50 692.5,-50"/>
<text text-anchor="start" x="718.5" y="-56.6" font-family="Times,serif" font-style="italic" font-size="8.00" fill="#000000">[blob some repomd.xml]</text>
<polygon fill="none" stroke="#000000" points="840.5,-50 840.5,-65 990.5,-65 990.5,-50 840.5,-50"/>
<text text-anchor="start" x="851.5" y="-55.6" font-family="Times,serif" font-size="8.00" fill="#000000">{ContentType: application/xml}</text>
<polygon fill="none" stroke="#000000" points="610.5,-35 610.5,-50 692.5,-50 692.5,-35 610.5,-35"/>
<text text-anchor="start" x="618" y="-40.6" font-family="Times,serif" font-size="8.00" fill="#000000">5d70f436aa01...</text>
<polygon fill="none" stroke="#000000" points="692.5,-35 692.5,-50 840.5,-50 840.5,-35 692.5,-35"/>
<text text-anchor="start" x="718" y="-41.6" font-family="Times,serif" font-style="italic" font-size="8.00" fill="#000000">[blob other repomd.xml]</text>
<polygon fill="none" stroke="#000000" points="840.5,-35 840.5,-50 990.5,-50 990.5,-35 840.5,-35"/>
<text text-anchor="start" x="851.5" y="-40.6" font-family="Times,serif" font-size="8.00" fill="#000000">{ContentType: application/xml}</text>
<polygon fill="none" stroke="#000000" points="610.5,-20 610.5,-35 692.5,-35 692.5,-20 610.5,-20"/>
<text text-anchor="start" x="619.5" y="-25.6" font-family="Times,serif" font-size="8.00" fill="#000000">49ae93732fcf...</text>
<polygon fill="none" stroke="#000000" points="692.5,-20 692.5,-35 840.5,-35 840.5,-20 692.5,-20"/>
<text text-anchor="start" x="706.5" y="-26.6" font-family="Times,serif" font-style="italic" font-size="8.00" fill="#000000">[blob some primary.sqlite.bz2]</text>
<polygon fill="none" stroke="#000000" points="840.5,-20 840.5,-35 990.5,-35 990.5,-20 840.5,-20"/>
<text text-anchor="start" x="843.5" y="-25.6" font-family="Times,serif" font-size="8.00" fill="#000000">{ContentType: application/x&#45;bzip2}</text>
<polygon fill="none" stroke="#000000" points="610.5,-5 610.5,-20 990.5,-20 990.5,-5 610.5,-5"/>
<text text-anchor="start" x="797" y="-10.6" font-family="Times,serif" font-size="8.00" fill="#000000">...</text>
<polygon fill="none" stroke="#000000" points="609.5,-4 609.5,-132 991.5,-132 991.5,-4 609.5,-4"/>
</g>
<!-- controller&#45;&gt;S3 -->
<g id="edge5" class="edge">
<title>controller&#45;&gt;S3</title>
<path fill="none" stroke="#000000" d="M452.9365,-385.2304C547.1057,-373.8487 717.2334,-347.7318 758.5,-304 797.7275,-262.4293 806.9528,-197.5357 807.0774,-146.31"/>
<polygon fill="#000000" stroke="#000000" points="452.4725,-381.7608 442.9552,-386.416 453.2982,-388.712 452.4725,-381.7608"/>
<polygon fill="#000000" stroke="#000000" points="810.5769,-146.2262 806.9872,-136.258 803.5772,-146.2891 810.5769,-146.2262"/>
<path fill="#ffffff" stroke="transparent" d="M638.4977,-351.4397C638.4977,-351.4397 643.1644,-351.4397 643.1644,-351.4397 645.4977,-351.4397 647.831,-353.773 647.831,-356.1064 647.831,-356.1064 647.831,-365.773 647.831,-365.773 647.831,-368.1064 645.4977,-370.4397 643.1644,-370.4397 643.1644,-370.4397 638.4977,-370.4397 638.4977,-370.4397 636.1644,-370.4397 633.831,-368.1064 633.831,-365.773 633.831,-365.773 633.831,-356.1064 633.831,-356.1064 633.831,-353.773 636.1644,-351.4397 638.4977,-351.4397"/>
<text text-anchor="start" x="635.831" y="-356.7397" font-family="Times,serif" font-size="14.00" fill="#000000">5</text>
</g>
<!-- origin_response -->
<g id="node6" class="node">
<title>origin_response</title>
<ellipse fill="none" stroke="#000000" cx="479.5" cy="-255" rx="84.485" ry="18"/>
<text text-anchor="middle" x="479.5" y="-251.3" font-family="Times,serif" font-size="14.00" fill="#000000">origin_response</text>
</g>
<!-- controller&#45;&gt;origin_response -->
<g id="edge6" class="edge">
<title>controller:se&#45;&gt;origin_response</title>
<path fill="none" stroke="#000000" d="M413.5561,-367.5429C437.4665,-340.912 456.2918,-306.0698 467.605,-282.2509"/>
<polygon fill="#000000" stroke="#000000" points="410.8308,-365.3307 406.5,-375 415.9154,-370.1419 410.8308,-365.3307"/>
<polygon fill="#000000" stroke="#000000" points="470.8237,-283.6292 471.847,-273.0839 464.4709,-280.6895 470.8237,-283.6292"/>
<path fill="#ffffff" stroke="transparent" d="M434.0265,-327.0144C434.0265,-327.0144 438.6931,-327.0144 438.6931,-327.0144 441.0265,-327.0144 443.3598,-329.3477 443.3598,-331.6811 443.3598,-331.6811 443.3598,-341.3477 443.3598,-341.3477 443.3598,-343.6811 441.0265,-346.0144 438.6931,-346.0144 438.6931,-346.0144 434.0265,-346.0144 434.0265,-346.0144 431.6931,-346.0144 429.3598,-343.6811 429.3598,-341.3477 429.3598,-341.3477 429.3598,-331.6811 429.3598,-331.6811 429.3598,-329.3477 431.6931,-327.0144 434.0265,-327.0144"/>
<text text-anchor="start" x="431.3598" y="-332.3144" font-family="Times,serif" font-size="14.00" fill="#000000">6</text>
</g>
<!-- origin_request&#45;&gt;controller -->
<g id="edge4" class="edge">
<title>origin_request&#45;&gt;controller:s</title>
<path fill="none" stroke="#000000" d="M324.0929,-272.0908C348.6584,-291.2125 383.5177,-324.7034 388.8145,-363.9134"/>
<polygon fill="#000000" stroke="#000000" points="385.33,-364.2603 389.5,-374 392.3138,-363.7857 385.33,-364.2603"/>
<path fill="#ffffff" stroke="transparent" d="M358.059,-315.3182C358.059,-315.3182 362.7257,-315.3182 362.7257,-315.3182 365.059,-315.3182 367.3924,-317.6516 367.3924,-319.9849 367.3924,-319.9849 367.3924,-329.6516 367.3924,-329.6516 367.3924,-331.9849 365.059,-334.3182 362.7257,-334.3182 362.7257,-334.3182 358.059,-334.3182 358.059,-334.3182 355.7257,-334.3182 353.3924,-331.9849 353.3924,-329.6516 353.3924,-329.6516 353.3924,-319.9849 353.3924,-319.9849 353.3924,-317.6516 355.7257,-315.3182 358.059,-315.3182"/>
<text text-anchor="start" x="355.3924" y="-320.6182" font-family="Times,serif" font-size="14.00" fill="#000000">4</text>
</g>
<!-- db -->
<g id="node4" class="node">
<title>db</title>
<polygon fill="none" stroke="#000000" points="9.5,-102 9.5,-123 574.5,-123 574.5,-102 9.5,-102"/>
<text text-anchor="start" x="238.5" y="-109.8" font-family="Times,serif" font-weight="bold" font-size="14.00" fill="#000000">☁ DynamoDB</text>
<polygon fill="none" stroke="#000000" points="9.5,-87 9.5,-102 364.5,-102 364.5,-87 9.5,-87"/>
<text text-anchor="start" x="135.5" y="-93.6" font-family="Times,serif" font-weight="bold" font-size="8.00" fill="#000000">web_uri (partition key)</text>
<polygon fill="none" stroke="#000000" points="364.5,-87 364.5,-102 492.5,-102 492.5,-87 364.5,-87"/>
<text text-anchor="start" x="382.5" y="-93.6" font-family="Times,serif" font-weight="bold" font-size="8.00" fill="#000000">from_date (sort key)</text>
<polygon fill="none" stroke="#000000" points="492.5,-87 492.5,-102 574.5,-102 574.5,-87 492.5,-87"/>
<text text-anchor="start" x="510.5" y="-93.6" font-family="Times,serif" font-weight="bold" font-size="8.00" fill="#000000">object_key</text>
<polygon fill="none" stroke="#000000" points="9.5,-72 9.5,-87 364.5,-87 364.5,-72 9.5,-72"/>
<text text-anchor="start" x="15.5" y="-77.6" font-family="Times,serif" font-size="8.00" fill="#000000">/content/dist/rhel/server/7/7Server/x86_64/os/Packages/t/tar&#45;1.26&#45;34.el7.x86_64.rpm</text>
<polygon fill="none" stroke="#000000" points="364.5,-72 364.5,-87 492.5,-87 492.5,-72 364.5,-72"/>
<text text-anchor="start" x="367.5" y="-77.6" font-family="Times,serif" font-size="8.00" fill="#000000">2020&#45;03&#45;26T01:07:39+00:00</text>
<polygon fill="none" stroke="#000000" points="492.5,-72 492.5,-87 574.5,-87 574.5,-72 492.5,-72"/>
<text text-anchor="start" x="497.5" y="-77.6" font-family="Times,serif" font-size="8.00" fill="#000000">8e7750e50734f...</text>
<polygon fill="none" stroke="#000000" points="9.5,-57 9.5,-72 364.5,-72 364.5,-57 9.5,-57"/>
<text text-anchor="start" x="12.5" y="-62.6" font-family="Times,serif" font-size="8.00" fill="#000000">/content/dist/rhel/server/7/7Server/x86_64/os/Packages/z/zlib&#45;1.2.7&#45;18.el7.x86_64.rpm</text>
<polygon fill="none" stroke="#000000" points="364.5,-57 364.5,-72 492.5,-72 492.5,-57 364.5,-57"/>
<text text-anchor="start" x="367.5" y="-62.6" font-family="Times,serif" font-size="8.00" fill="#000000">2020&#45;03&#45;26T01:07:39+00:00</text>
<polygon fill="none" stroke="#000000" points="492.5,-57 492.5,-72 574.5,-72 574.5,-57 492.5,-57"/>
<text text-anchor="start" x="495.5" y="-62.6" font-family="Times,serif" font-size="8.00" fill="#000000">db8dd5164d117...</text>
<polygon fill="none" stroke="#000000" points="9.5,-42 9.5,-57 364.5,-57 364.5,-42 9.5,-42"/>
<text text-anchor="start" x="51" y="-47.6" font-family="Times,serif" font-size="8.00" fill="#000000">/content/dist/rhel/server/7/7Server/x86_64/os/repodata/repomd.xml</text>
<polygon fill="none" stroke="#000000" points="364.5,-42 364.5,-57 492.5,-57 492.5,-42 364.5,-42"/>
<text text-anchor="start" x="367.5" y="-47.6" font-family="Times,serif" font-size="8.00" fill="#000000">2020&#45;03&#45;26T01:07:39+00:00</text>
<polygon fill="none" stroke="#000000" points="492.5,-42 492.5,-57 574.5,-57 574.5,-42 492.5,-42"/>
<text text-anchor="start" x="498.5" y="-47.6" font-family="Times,serif" font-size="8.00" fill="#000000">aec070645fe53...</text>
<polygon fill="none" stroke="#000000" points="9.5,-27 9.5,-42 364.5,-42 364.5,-27 9.5,-27"/>
<text text-anchor="start" x="51" y="-32.6" font-family="Times,serif" font-size="8.00" fill="#000000">/content/dist/rhel/server/7/7Server/x86_64/os/repodata/repomd.xml</text>
<polygon fill="none" stroke="#000000" points="364.5,-27 364.5,-42 492.5,-42 492.5,-27 364.5,-27"/>
<text text-anchor="start" x="367.5" y="-32.6" font-family="Times,serif" font-size="8.00" fill="#000000">2020&#45;01&#45;22T02:07:20+00:00</text>
<polygon fill="none" stroke="#000000" points="492.5,-27 492.5,-42 574.5,-42 574.5,-27 492.5,-27"/>
<text text-anchor="start" x="497.5" y="-32.6" font-family="Times,serif" font-size="8.00" fill="#000000">5d70f436aa013...</text>
<polygon fill="none" stroke="#000000" points="9.5,-12 9.5,-27 574.5,-27 574.5,-12 9.5,-12"/>
<text text-anchor="start" x="288.5" y="-17.6" font-family="Times,serif" font-size="8.00" fill="#000000">...</text>
<polygon fill="none" stroke="#000000" points="8,-11.5 8,-124.5 575,-124.5 575,-11.5 8,-11.5"/>
</g>
<!-- origin_request&#45;&gt;db -->
<g id="edge3" class="edge">
<title>origin_request&#45;&gt;db</title>
<path fill="none" stroke="#000000" d="M298.2811,-226.5075C297.2872,-203.276 295.8398,-169.4437 294.5373,-138.9962"/>
<polygon fill="#000000" stroke="#000000" points="294.794,-226.8879 298.7184,-236.7292 301.7877,-226.5887 294.794,-226.8879"/>
<polygon fill="#000000" stroke="#000000" points="298.0263,-138.6618 294.1019,-128.8205 291.0327,-138.961 298.0263,-138.6618"/>
<path fill="#ffffff" stroke="transparent" d="M287.1954,-185.5467C287.1954,-185.5467 291.8621,-185.5467 291.8621,-185.5467 294.1954,-185.5467 296.5287,-187.88 296.5287,-190.2134 296.5287,-190.2134 296.5287,-199.88 296.5287,-199.88 296.5287,-202.2134 294.1954,-204.5467 291.8621,-204.5467 291.8621,-204.5467 287.1954,-204.5467 287.1954,-204.5467 284.8621,-204.5467 282.5287,-202.2134 282.5287,-199.88 282.5287,-199.88 282.5287,-190.2134 282.5287,-190.2134 282.5287,-187.88 284.8621,-185.5467 287.1954,-185.5467"/>
<text text-anchor="start" x="284.5287" y="-190.8467" font-family="Times,serif" font-size="14.00" fill="#000000">3</text>
</g>
<!-- publish_tools -->
<g id="node7" class="node">
<title>publish_tools</title>
<path fill="none" stroke="#000000" d="M737,-273C737,-273 630,-273 630,-273 624,-273 618,-267 618,-261 618,-261 618,-249 618,-249 618,-243 624,-237 630,-237 630,-237 737,-237 737,-237 743,-237 749,-243 749,-249 749,-249 749,-261 749,-261 749,-267 743,-273 737,-273"/>
<text text-anchor="middle" x="683.5" y="-251.3" font-family="Times,serif" font-size="14.00" fill="#000000">publishing tools</text>
</g>
<!-- publish_tools&#45;&gt;db -->
<g id="edge9" class="edge">
<title>publish_tools&#45;&gt;db</title>
<path fill="none" stroke="#000000" d="M645.5572,-236.8997C595.5206,-213.0302 504.7903,-169.7482 427.706,-132.9758"/>
<polygon fill="#000000" stroke="#000000" points="428.9093,-129.6721 418.3767,-128.5254 425.8954,-135.99 428.9093,-129.6721"/>
</g>
<!-- publish_tools&#45;&gt;S3 -->
<g id="edge8" class="edge">
<title>publish_tools&#45;&gt;S3</title>
<path fill="none" stroke="#000000" d="M694.9315,-236.7292C708.2896,-215.3791 731.2596,-178.6663 752.3689,-144.9275"/>
<polygon fill="#000000" stroke="#000000" points="755.3516,-146.759 757.6886,-136.4251 749.4173,-143.0461 755.3516,-146.759"/>
</g>
</g>
</svg>
